<svg version="1.1" id="Layer_1" xmlns="http://www.w3.org/2000/svg" xmlns:xlink="http://www.w3.org/1999/xlink" x="0px" y="0px"
	 width="100%" viewBox="0 0 2107 2107" enable-background="new 0 0 2107 2107" xml:space="preserve">
<path fill="#9AB68D" opacity="1.000000" stroke="none" 
	d="
M1390.000000,2110.000000 
	C926.721313,2110.000000 464.442688,2110.000000 2.082010,2110.000000 
	C2.082010,1407.471069 2.082010,704.942200 2.082010,2.206652 
	C704.445740,2.206652 1406.891602,2.206652 2109.668701,2.206652 
	C2109.668701,704.666565 2109.668701,1407.333252 2109.668701,2110.000000 
	C1870.274780,2110.000000 1630.637329,2110.000000 1390.000000,2110.000000 
M1788.006958,1105.697266 
	C1787.534668,1109.070801 1787.062378,1112.444336 1785.789673,1116.537109 
	C1785.308472,1117.869507 1784.827271,1119.202026 1784.253906,1122.254761 
	C1784.215820,1125.899536 1784.788818,1129.676514 1784.034424,1133.166504 
	C1780.647583,1148.833862 1777.390381,1164.558838 1773.145020,1180.004395 
	C1765.428955,1208.077148 1754.729858,1235.023315 1740.327393,1260.403320 
	C1726.949097,1283.978271 1712.784424,1307.056763 1694.266724,1327.041748 
	C1681.907227,1340.380493 1669.033813,1353.243042 1656.338257,1364.813965 
	C1656.368896,1358.079712 1661.157349,1354.211548 1665.170898,1349.760742 
	C1675.166626,1338.676392 1685.102539,1327.532471 1694.814209,1316.199707 
	C1699.767334,1310.420044 1703.785034,1303.807861 1708.965698,1298.263550 
	C1713.632568,1293.268921 1717.007568,1287.921021 1719.364990,1281.503418 
	C1721.024536,1276.985107 1724.121216,1272.935303 1726.912842,1268.910034 
	C1729.366455,1265.372192 1732.899170,1262.481689 1734.877197,1258.735962 
	C1739.194824,1250.560303 1742.877197,1242.045532 1746.707764,1233.618652 
	C1747.803955,1231.207275 1749.043457,1228.678101 1749.317749,1226.107056 
	C1750.615356,1213.947998 1755.071777,1203.057495 1761.276978,1192.628052 
	C1762.806519,1190.057373 1762.567749,1186.343872 1762.833618,1183.130249 
	C1763.487793,1175.226685 1763.202881,1167.244019 1769.655273,1160.934814 
	C1774.011963,1156.674805 1774.288086,1151.009277 1773.386475,1145.053467 
	C1772.866089,1141.615845 1772.636841,1137.397339 1774.151245,1134.515259 
	C1780.929810,1121.614990 1782.748657,1108.210815 1780.317505,1093.996094 
	C1779.873657,1091.401123 1780.019775,1088.676880 1780.123291,1086.021240 
	C1780.688110,1071.516479 1781.434814,1057.017944 1781.893921,1042.510132 
	C1782.157837,1034.168213 1779.416260,1031.292358 1770.911987,1030.139526 
	C1767.830200,1029.721680 1764.743164,1029.343994 1760.785767,1028.835815 
	C1762.352417,1025.359131 1763.633057,1023.376221 1764.132812,1021.212830 
	C1764.943359,1017.704712 1765.817749,1014.045288 1765.614868,1010.510010 
	C1765.342896,1005.766174 1762.822632,1004.315674 1758.104736,1005.103516 
	C1749.456543,1006.547668 1746.524536,1010.042969 1745.972412,1019.219849 
	C1745.794678,1022.173523 1746.262329,1026.078125 1744.612183,1027.858521 
	C1739.827148,1033.021240 1740.045410,1038.364136 1742.579224,1043.956665 
	C1741.401978,1044.583008 1740.836548,1045.142334 1740.263794,1045.150024 
	C1731.084595,1045.271362 1731.084351,1045.255371 1731.460938,1054.098511 
	C1731.735596,1060.547119 1729.758301,1062.783325 1723.129150,1061.487915 
	C1714.069824,1059.717773 1704.556763,1060.632568 1695.903564,1056.159790 
	C1689.663818,1052.934326 1682.904663,1054.543945 1676.350098,1056.107544 
	C1670.526733,1057.496704 1667.041138,1060.914795 1666.120972,1066.899170 
	C1665.463989,1071.172241 1664.712036,1075.430786 1662.408325,1080.118530 
	C1644.336426,1083.414429 1626.552368,1087.628784 1609.869751,1095.673462 
	C1554.776001,1122.240967 1519.827881,1166.509521 1499.788940,1223.041992 
	C1486.883423,1259.449463 1475.402222,1296.386963 1464.163086,1333.354492 
	C1445.460327,1394.872070 1427.453979,1456.601318 1409.206787,1518.256836 
	C1408.394897,1521.000244 1408.103394,1523.897583 1407.460205,1527.301880 
	C1410.911255,1527.887695 1413.473389,1528.758179 1416.007690,1528.683594 
	C1435.306152,1528.115723 1454.768433,1528.751221 1473.863525,1526.420654 
	C1545.463135,1517.681885 1610.233643,1491.287354 1668.523438,1448.770752 
	C1714.442993,1415.277100 1752.258301,1374.438110 1779.477417,1324.507202 
	C1814.130127,1260.939941 1832.573730,1192.406860 1837.772583,1120.386963 
	C1841.976562,1062.147339 1837.245850,1004.548340 1822.695923,947.851929 
	C1795.615601,842.327637 1742.229980,752.478821 1661.752930,679.061646 
	C1586.804321,610.687927 1500.218506,564.274292 1400.433716,543.775635 
	C1324.184937,528.111938 1248.098755,529.906250 1172.331299,547.354919 
	C1096.277710,564.869385 1027.220947,597.638062 963.765320,642.797485 
	C866.229553,712.210754 801.479919,805.272888 765.915100,918.806519 
	C743.315186,990.952332 737.379639,1065.106689 745.290222,1140.257568 
	C750.763794,1192.255981 763.571472,1242.425049 783.557556,1290.841797 
	C814.578735,1365.991699 860.062866,1430.890503 919.792053,1485.928467 
	C926.767578,1492.355957 934.115784,1497.522217 943.958496,1498.940186 
	C951.496887,1500.026245 958.810364,1502.634155 966.257690,1504.424438 
	C967.710571,1504.773560 969.319336,1504.474487 972.695923,1504.474487 
	C968.369141,1497.885376 964.926575,1492.359985 961.208862,1487.026245 
	C933.774658,1447.667847 905.560120,1408.831055 878.964783,1368.914917 
	C823.851257,1286.196899 794.629944,1194.922241 791.932983,1095.422241 
	C790.551575,1044.458130 796.664673,994.370361 810.519592,945.235046 
	C832.361145,867.776001 870.146484,799.174927 925.713135,740.940125 
	C976.032959,688.204224 1035.124146,647.611389 1102.573120,619.756836 
	C1180.780273,587.459412 1262.143677,575.382019 1346.349854,584.581543 
	C1397.064453,590.122070 1445.867676,603.410034 1492.285156,624.635498 
	C1559.928223,655.566895 1617.990967,699.433228 1667.005005,755.418030 
	C1718.835327,814.619934 1755.424438,881.948486 1775.083008,958.159668 
	C1779.973022,977.117371 1782.440186,996.700073 1785.496582,1016.655090 
	C1785.868774,1017.836243 1786.240967,1019.017456 1787.161133,1021.966675 
	C1789.499268,1047.941162 1791.211060,1073.923462 1787.533325,1100.654175 
	C1787.656982,1101.764282 1787.780518,1102.874268 1788.006958,1105.697266 
M382.095825,1144.226685 
	C387.728088,1149.566162 392.050903,1155.420410 392.382965,1163.750610 
	C392.510010,1166.937988 394.596375,1170.047119 396.580200,1175.274414 
	C398.696045,1171.327881 399.661713,1169.731689 400.435760,1168.047485 
	C403.848846,1160.621094 411.339142,1158.885986 416.886536,1164.628174 
	C418.591187,1166.392700 419.212311,1169.265015 420.146088,1171.700562 
	C422.157043,1176.945557 425.952637,1178.980469 430.937958,1177.420166 
	C435.363464,1176.035156 435.822845,1172.430664 435.937897,1168.640747 
	C436.190369,1160.322754 436.444305,1152.004395 436.624542,1143.684570 
	C436.774750,1136.753296 436.800751,1129.819458 436.936340,1122.887817 
	C436.954773,1121.944824 437.290253,1121.008301 437.481812,1120.054199 
	C440.110962,1119.376709 442.561005,1118.745239 444.868103,1118.150635 
	C444.881226,1103.010254 443.522339,1101.574341 422.401855,1095.367065 
	C426.741608,1094.728882 429.218781,1093.954590 431.649628,1094.079834 
	C440.939117,1094.558105 450.236542,1096.091309 459.488739,1095.815063 
	C475.350403,1095.341431 491.191132,1097.484131 507.178345,1093.823608 
	C514.109131,1092.236816 521.351379,1091.699707 528.254456,1089.143066 
	C533.773376,1087.099121 536.455078,1083.804932 537.228455,1077.189331 
	C539.719604,1076.248779 542.206238,1075.296143 544.702637,1074.369629 
	C581.704163,1060.637085 611.656250,1038.041016 634.105469,1005.236877 
	C649.880249,982.185913 661.732666,957.394470 670.749146,931.125488 
	C703.970825,834.336304 731.843323,735.894104 761.205444,637.912842 
	C762.112915,634.884460 762.467407,631.690308 763.246826,627.722595 
	C757.848877,627.310730 753.597656,626.809753 749.335571,626.687866 
	C693.989868,625.104675 640.465210,634.604431 588.782715,654.118347 
	C526.504150,677.633118 473.338776,714.667114 429.126678,764.372375 
	C385.828217,813.050537 356.368195,869.468323 338.987488,931.961853 
	C318.017334,1007.361389 312.169678,1084.137451 323.591095,1161.716919 
	C339.967224,1272.950806 385.979156,1370.544067 461.823669,1453.595703 
	C534.421753,1533.092529 622.741882,1587.191284 726.858521,1615.490234 
	C792.336426,1633.287109 858.834534,1638.314209 926.024353,1631.225830 
	C1008.099670,1622.566772 1085.914307,1599.238525 1158.151978,1558.625122 
	C1234.153320,1515.895752 1295.123169,1457.527954 1339.898315,1382.644897 
	C1382.898926,1310.729858 1408.715210,1232.783081 1420.305420,1149.925781 
	C1427.362671,1099.475464 1428.488892,1049.042603 1421.554810,998.494019 
	C1410.232544,915.958740 1379.538696,841.169800 1331.607422,773.282166 
	C1303.029053,732.805115 1269.569702,696.653748 1232.898071,663.467407 
	C1227.314697,658.414612 1220.650391,653.608765 1213.627197,651.291260 
	C1198.822144,646.405884 1183.465210,643.173462 1168.283447,639.474060 
	C1166.548340,639.051208 1163.417480,639.319031 1162.760010,640.388794 
	C1160.005005,644.872253 1156.939331,649.607788 1156.067627,654.613342 
	C1155.649292,657.014832 1159.458618,660.672668 1162.045166,662.989258 
	C1174.452881,674.102478 1187.724609,684.316345 1199.552490,696.000610 
	C1262.925415,758.604187 1309.832153,831.636780 1338.557129,916.246704 
	C1356.295532,968.495544 1365.323364,1022.108582 1365.813232,1077.170898 
	C1366.255127,1126.827637 1358.944458,1175.355591 1344.739258,1223.013550 
	C1323.505615,1294.252319 1287.194580,1356.883423 1237.521484,1411.707397 
	C1190.408081,1463.706177 1134.720337,1504.277100 1070.546265,1533.137207 
	C1010.127441,1560.308228 946.871643,1574.484985 880.732849,1575.813477 
	C824.216675,1576.948730 769.239136,1568.064819 715.636780,1550.063599 
	C646.300659,1526.778564 585.079590,1490.199951 532.115051,1439.713379 
	C494.910248,1404.249268 463.888733,1363.952515 438.746399,1319.268311 
	C429.145905,1302.205933 421.830811,1283.857544 414.740631,1266.491333 
	C416.997833,1267.996338 419.255005,1269.501343 422.487640,1271.656616 
	C422.487640,1269.054321 422.859985,1267.657104 422.429230,1266.581299 
	C418.671600,1257.197021 418.244019,1246.601807 411.662933,1238.188232 
	C409.746887,1235.738647 409.142761,1232.201050 408.165985,1229.090454 
	C405.374969,1220.202515 402.706329,1211.276123 399.955200,1202.375488 
	C399.882446,1202.140259 399.415466,1202.026855 398.461487,1201.453247 
	C396.801605,1203.024658 394.986115,1204.743530 392.456024,1205.131470 
	C388.506866,1184.639526 384.557709,1164.147705 382.095825,1144.226685 
M1088.090698,1281.110718 
	C1095.284302,1274.665771 1102.509399,1268.255493 1109.666138,1261.769775 
	C1143.757935,1230.874390 1176.854004,1199.002930 1205.033691,1162.449341 
	C1219.661377,1143.474487 1234.557373,1124.718384 1243.216309,1101.842773 
	C1258.927246,1060.338501 1248.751587,1014.578918 1216.264648,984.556458 
	C1201.244507,970.675720 1183.622925,964.382507 1163.036621,967.558044 
	C1133.171143,972.164856 1106.742432,983.341125 1086.659424,1006.950500 
	C1082.428711,1011.924011 1077.790894,1016.551208 1073.517334,1021.147949 
	C1066.423218,1013.402710 1060.396851,1005.848450 1053.379395,999.367371 
	C1039.396973,986.453918 1021.693481,980.107178 1004.505737,972.811890 
	C983.309937,963.815247 962.738220,965.548096 942.839417,975.862915 
	C918.827881,988.309692 900.366211,1005.691223 895.293945,1033.880493 
	C893.997681,1041.084717 891.959961,1048.183472 891.081848,1055.429932 
	C888.093750,1080.086792 889.701050,1104.362915 902.804688,1126.094727 
	C918.838989,1152.686646 937.647522,1177.211670 960.961731,1198.105225 
	C973.596069,1209.427856 985.611572,1221.458252 997.633362,1233.442993 
	C1014.616272,1250.373779 1031.156616,1267.751099 1048.249756,1284.567871 
	C1060.224609,1296.349243 1069.181519,1296.439575 1082.532715,1286.035034 
	C1084.106445,1284.808472 1085.551880,1283.417480 1088.090698,1281.110718 
M404.873474,1195.846436 
	C405.351044,1199.429565 405.505707,1203.096802 406.408264,1206.569458 
	C407.131836,1209.353516 408.406647,1212.173340 410.136993,1214.443726 
	C411.047424,1215.638184 413.550201,1216.281860 415.157837,1216.033691 
	C416.125397,1215.884155 417.559845,1213.432251 417.393280,1212.203613 
	C416.735077,1207.348877 416.130371,1202.326904 414.330658,1197.838013 
	C412.911560,1194.298340 409.997681,1190.797363 404.873474,1195.846436 
M456.505096,1110.296753 
	C456.200836,1110.076538 455.896576,1109.856323 455.592316,1109.636108 
	C455.784027,1109.957886 455.975739,1110.279663 456.505096,1110.296753 
z"/>
<path fill="#FDFEFD" opacity="1.000000" stroke="none" 
	d="
M413.474213,1266.095215 
	C421.830811,1283.857544 429.145905,1302.205933 438.746399,1319.268311 
	C463.888733,1363.952515 494.910248,1404.249268 532.115051,1439.713379 
	C585.079590,1490.199951 646.300659,1526.778564 715.636780,1550.063599 
	C769.239136,1568.064819 824.216675,1576.948730 880.732849,1575.813477 
	C946.871643,1574.484985 1010.127441,1560.308228 1070.546265,1533.137207 
	C1134.720337,1504.277100 1190.408081,1463.706177 1237.521484,1411.707397 
	C1287.194580,1356.883423 1323.505615,1294.252319 1344.739258,1223.013550 
	C1358.944458,1175.355591 1366.255127,1126.827637 1365.813232,1077.170898 
	C1365.323364,1022.108582 1356.295532,968.495544 1338.557129,916.246704 
	C1309.832153,831.636780 1262.925415,758.604187 1199.552490,696.000610 
	C1187.724609,684.316345 1174.452881,674.102478 1162.045166,662.989258 
	C1159.458618,660.672668 1155.649292,657.014832 1156.067627,654.613342 
	C1156.939331,649.607788 1160.005005,644.872253 1162.760010,640.388794 
	C1163.417480,639.319031 1166.548340,639.051208 1168.283447,639.474060 
	C1183.465210,643.173462 1198.822144,646.405884 1213.627197,651.291260 
	C1220.650391,653.608765 1227.314697,658.414612 1232.898071,663.467407 
	C1269.569702,696.653748 1303.029053,732.805115 1331.607422,773.282166 
	C1379.538696,841.169800 1410.232544,915.958740 1421.554810,998.494019 
	C1428.488892,1049.042603 1427.362671,1099.475464 1420.305420,1149.925781 
	C1408.715210,1232.783081 1382.898926,1310.729858 1339.898315,1382.644897 
	C1295.123169,1457.527954 1234.153320,1515.895752 1158.151978,1558.625122 
	C1085.914307,1599.238525 1008.099670,1622.566772 926.024353,1631.225830 
	C858.834534,1638.314209 792.336426,1633.287109 726.858521,1615.490234 
	C622.741882,1587.191284 534.421753,1533.092529 461.823669,1453.595703 
	C385.979156,1370.544067 339.967224,1272.950806 323.591095,1161.716919 
	C312.169678,1084.137451 318.017334,1007.361389 338.987488,931.961853 
	C356.368195,869.468323 385.828217,813.050537 429.126678,764.372375 
	C473.338776,714.667114 526.504150,677.633118 588.782715,654.118347 
	C640.465210,634.604431 693.989868,625.104675 749.335571,626.687866 
	C753.597656,626.809753 757.848877,627.310730 763.246826,627.722595 
	C762.467407,631.690308 762.112915,634.884460 761.205444,637.912842 
	C731.843323,735.894104 703.970825,834.336304 670.749146,931.125488 
	C661.732666,957.394470 649.880249,982.185913 634.105469,1005.236877 
	C611.656250,1038.041016 581.704163,1060.637085 544.702637,1074.369629 
	C542.206238,1075.296143 539.719604,1076.248779 535.815674,1077.611328 
	C524.028442,1080.025635 513.714722,1082.446777 503.267487,1083.924561 
	C478.560120,1087.419189 453.818451,1086.269165 428.697266,1082.670288 
	C427.986572,1078.569336 427.366547,1075.285278 427.458405,1072.020996 
	C427.812988,1059.416992 428.394836,1046.819580 429.172852,1033.495850 
	C433.343994,1001.213379 440.500854,970.510010 453.136536,941.202026 
	C474.255493,892.217651 505.396851,850.104065 541.718933,811.508179 
	C568.925720,782.598267 598.454102,756.159851 628.232727,729.982056 
	C630.913208,727.625671 633.447998,725.103516 636.859619,721.898193 
	C632.652832,717.564270 629.104675,713.908875 625.700073,710.401367 
	C623.345764,711.712219 622.091064,712.226440 621.047546,713.018677 
	C588.687744,737.588501 555.659241,761.338684 524.164551,786.972900 
	C474.564453,827.343567 436.454681,876.968079 410.566437,935.666321 
	C386.936127,989.245056 375.639038,1045.270508 377.896759,1103.868042 
	C378.408356,1117.145752 379.684387,1130.393921 380.608551,1143.655762 
	C384.557709,1164.147705 388.506866,1184.639526 392.846741,1206.566406 
	C399.983063,1227.365845 406.728638,1246.730591 413.474213,1266.095215 
z"/>
<path fill="#FDFEFD" opacity="1.000000" stroke="none" 
	d="
M1656.390259,1366.318604 
	C1669.033813,1353.243042 1681.907227,1340.380493 1694.266724,1327.041748 
	C1712.784424,1307.056763 1726.949097,1283.978271 1740.327393,1260.403320 
	C1754.729858,1235.023315 1765.428955,1208.077148 1773.145020,1180.004395 
	C1777.390381,1164.558838 1780.647583,1148.833862 1784.034424,1133.166504 
	C1784.788818,1129.676514 1784.215820,1125.899536 1784.823975,1121.136963 
	C1785.792725,1118.618652 1786.191406,1117.218262 1786.590210,1115.817871 
	C1787.062378,1112.444336 1787.534668,1109.070801 1788.192505,1104.481567 
	C1788.294678,1102.165649 1788.211304,1101.065308 1788.127930,1099.965088 
	C1791.211060,1073.923462 1789.499268,1047.941162 1787.033691,1020.547241 
	C1786.611084,1018.083679 1786.316040,1017.039612 1786.020996,1015.995483 
	C1782.440186,996.700073 1779.973022,977.117371 1775.083008,958.159668 
	C1755.424438,881.948486 1718.835327,814.619934 1667.005005,755.418030 
	C1617.990967,699.433228 1559.928223,655.566895 1492.285156,624.635498 
	C1445.867676,603.410034 1397.064453,590.122070 1346.349854,584.581543 
	C1262.143677,575.382019 1180.780273,587.459412 1102.573120,619.756836 
	C1035.124146,647.611389 976.032959,688.204224 925.713135,740.940125 
	C870.146484,799.174927 832.361145,867.776001 810.519592,945.235046 
	C796.664673,994.370361 790.551575,1044.458130 791.932983,1095.422241 
	C794.629944,1194.922241 823.851257,1286.196899 878.964783,1368.914917 
	C905.560120,1408.831055 933.774658,1447.667847 961.208862,1487.026245 
	C964.926575,1492.359985 968.369141,1497.885376 972.695923,1504.474487 
	C969.319336,1504.474487 967.710571,1504.773560 966.257690,1504.424438 
	C958.810364,1502.634155 951.496887,1500.026245 943.958496,1498.940186 
	C934.115784,1497.522217 926.767578,1492.355957 919.792053,1485.928467 
	C860.062866,1430.890503 814.578735,1365.991699 783.557556,1290.841797 
	C763.571472,1242.425049 750.763794,1192.255981 745.290222,1140.257568 
	C737.379639,1065.106689 743.315186,990.952332 765.915100,918.806519 
	C801.479919,805.272888 866.229553,712.210754 963.765320,642.797485 
	C1027.220947,597.638062 1096.277710,564.869385 1172.331299,547.354919 
	C1248.098755,529.906250 1324.184937,528.111938 1400.433716,543.775635 
	C1500.218506,564.274292 1586.804321,610.687927 1661.752930,679.061646 
	C1742.229980,752.478821 1795.615601,842.327637 1822.695923,947.851929 
	C1837.245850,1004.548340 1841.976562,1062.147339 1837.772583,1120.386963 
	C1832.573730,1192.406860 1814.130127,1260.939941 1779.477417,1324.507202 
	C1752.258301,1374.438110 1714.442993,1415.277100 1668.523438,1448.770752 
	C1610.233643,1491.287354 1545.463135,1517.681885 1473.863525,1526.420654 
	C1454.768433,1528.751221 1435.306152,1528.115723 1416.007690,1528.683594 
	C1413.473389,1528.758179 1410.911255,1527.887695 1407.460205,1527.301880 
	C1408.103394,1523.897583 1408.394897,1521.000244 1409.206787,1518.256836 
	C1427.453979,1456.601318 1445.460327,1394.872070 1464.163086,1333.354492 
	C1475.402222,1296.386963 1486.883423,1259.449463 1499.788940,1223.041992 
	C1519.827881,1166.509521 1554.776001,1122.240967 1609.869751,1095.673462 
	C1626.552368,1087.628784 1644.336426,1083.414429 1663.965820,1079.985596 
	C1669.010376,1079.258911 1672.497192,1078.665161 1676.903687,1078.163330 
	C1685.216919,1078.066040 1692.610596,1077.876831 1700.789673,1077.864502 
	C1706.325806,1078.795288 1711.076538,1079.549072 1716.263916,1080.690308 
	C1717.807861,1081.407104 1718.915039,1081.736450 1720.376465,1082.377686 
	C1720.730469,1082.689697 1721.628174,1082.983765 1721.628174,1082.983765 
	C1721.628174,1082.983765 1722.497803,1082.614624 1722.752441,1083.295410 
	C1732.910645,1093.687012 1733.553955,1106.039673 1731.666260,1118.425171 
	C1727.468140,1145.969360 1721.060303,1173.032349 1711.560669,1199.294556 
	C1709.306641,1205.526001 1707.167969,1211.799194 1704.510132,1218.503906 
	C1691.192749,1246.419800 1676.761108,1272.974609 1659.075928,1297.687500 
	C1632.595093,1334.691284 1601.234497,1367.132690 1567.164551,1397.148804 
	C1553.204712,1409.447754 1539.751465,1422.356445 1526.593140,1435.513184 
	C1521.181519,1440.924072 1516.393311,1447.290161 1514.182129,1456.379272 
	C1525.865845,1454.836426 1536.153076,1452.214111 1545.386841,1446.979370 
	C1561.580200,1437.798828 1577.439941,1428.019775 1593.279785,1418.233276 
	C1596.586060,1416.190674 1599.200439,1413.028198 1602.801270,1410.286865 
	C1605.073364,1408.827881 1606.677979,1407.463745 1608.892822,1405.835449 
	C1613.664185,1402.374268 1617.825317,1399.177246 1622.636475,1395.790527 
	C1625.321899,1393.926514 1627.421143,1392.323486 1629.381958,1390.565918 
	C1638.390625,1382.490479 1647.360718,1374.371948 1656.353516,1366.270508 
	C1656.362183,1366.272217 1656.390259,1366.318604 1656.390259,1366.318604 
z"/>
<path fill="#FEFFFE" opacity="1.000000" stroke="none" 
	d="
M1087.573730,1281.606812 
	C1085.551880,1283.417480 1084.106445,1284.808472 1082.532715,1286.035034 
	C1069.181519,1296.439575 1060.224609,1296.349243 1048.249756,1284.567871 
	C1031.156616,1267.751099 1014.616272,1250.373779 997.633362,1233.442993 
	C985.611572,1221.458252 973.596069,1209.427856 960.961731,1198.105225 
	C937.647522,1177.211670 918.838989,1152.686646 902.804688,1126.094727 
	C889.701050,1104.362915 888.093750,1080.086792 891.081848,1055.429932 
	C891.959961,1048.183472 893.997681,1041.084717 895.293945,1033.880493 
	C900.366211,1005.691223 918.827881,988.309692 942.839417,975.862915 
	C962.738220,965.548096 983.309937,963.815247 1004.505737,972.811890 
	C1021.693481,980.107178 1039.396973,986.453918 1053.379395,999.367371 
	C1060.396851,1005.848450 1066.423218,1013.402710 1073.517334,1021.147949 
	C1077.790894,1016.551208 1082.428711,1011.924011 1086.659424,1006.950500 
	C1106.742432,983.341125 1133.171143,972.164856 1163.036621,967.558044 
	C1183.622925,964.382507 1201.244507,970.675720 1216.264648,984.556458 
	C1248.751587,1014.578918 1258.927246,1060.338501 1243.216309,1101.842773 
	C1234.557373,1124.718384 1219.661377,1143.474487 1205.033691,1162.449341 
	C1176.854004,1199.002930 1143.757935,1230.874390 1109.666138,1261.769775 
	C1102.509399,1268.255493 1095.284302,1274.665771 1087.573730,1281.606812 
z"/>
<path fill="#9DB88E" opacity="1.000000" stroke="none" 
	d="
M429.114929,1083.496216 
	C453.818451,1086.269165 478.560120,1087.419189 503.267487,1083.924561 
	C513.714722,1082.446777 524.028442,1080.025635 535.201294,1078.001587 
	C536.455078,1083.804932 533.773376,1087.099121 528.254456,1089.143066 
	C521.351379,1091.699707 514.109131,1092.236816 507.178345,1093.823608 
	C491.191132,1097.484131 475.350403,1095.341431 459.488739,1095.815063 
	C450.236542,1096.091309 440.939117,1094.558105 431.649628,1094.079834 
	C429.218781,1093.954590 426.741608,1094.728882 422.401855,1095.367065 
	C443.522339,1101.574341 444.881226,1103.010254 444.868103,1118.150635 
	C442.561005,1118.745239 440.110962,1119.376709 437.481812,1120.054199 
	C437.290253,1121.008301 436.954773,1121.944824 436.936340,1122.887817 
	C436.800751,1129.819458 436.774750,1136.753296 436.624542,1143.684570 
	C436.444305,1152.004395 436.190369,1160.322754 435.937897,1168.640747 
	C435.822845,1172.430664 435.363464,1176.035156 430.937958,1177.420166 
	C425.952637,1178.980469 422.157043,1176.945557 420.146088,1171.700562 
	C419.212311,1169.265015 418.591187,1166.392700 416.886536,1164.628174 
	C411.339142,1158.885986 403.848846,1160.621094 400.435760,1168.047485 
	C399.661713,1169.731689 398.696045,1171.327881 396.580200,1175.274414 
	C394.596375,1170.047119 392.510010,1166.937988 392.382965,1163.750610 
	C392.050903,1155.420410 387.728088,1149.566162 381.352173,1143.941162 
	C379.684387,1130.393921 378.408356,1117.145752 377.896759,1103.868042 
	C375.639038,1045.270508 386.936127,989.245056 410.566437,935.666321 
	C436.454681,876.968079 474.564453,827.343567 524.164551,786.972900 
	C555.659241,761.338684 588.687744,737.588501 621.047546,713.018677 
	C622.091064,712.226440 623.345764,711.712219 625.700073,710.401367 
	C629.104675,713.908875 632.652832,717.564270 636.859619,721.898193 
	C633.447998,725.103516 630.913208,727.625671 628.232727,729.982056 
	C598.454102,756.159851 568.925720,782.598267 541.718933,811.508179 
	C505.396851,850.104065 474.255493,892.217651 453.136536,941.202026 
	C440.500854,970.510010 433.343994,1001.213379 428.456665,1033.706787 
	C426.252289,1036.116455 424.673462,1037.419312 423.897186,1039.093994 
	C418.452393,1050.841187 419.420197,1063.686279 418.255798,1076.084106 
	C417.436462,1084.807861 419.999939,1085.991089 429.114929,1083.496216 
z"/>
<path fill="#9DB98D" opacity="1.000000" stroke="none" 
	d="
M1715.827271,1080.302979 
	C1711.076538,1079.549072 1706.325806,1078.795288 1700.704834,1077.139648 
	C1695.336792,1067.762085 1689.898438,1066.189087 1675.581421,1069.627686 
	C1675.710815,1072.341919 1675.847534,1075.206665 1675.984131,1078.071411 
	C1672.497192,1078.665161 1669.010376,1079.258911 1664.762939,1079.774170 
	C1664.712036,1075.430786 1665.463989,1071.172241 1666.120972,1066.899170 
	C1667.041138,1060.914795 1670.526733,1057.496704 1676.350098,1056.107544 
	C1682.904663,1054.543945 1689.663818,1052.934326 1695.903564,1056.159790 
	C1704.556763,1060.632568 1714.069824,1059.717773 1723.129150,1061.487915 
	C1729.758301,1062.783325 1731.735596,1060.547119 1731.460938,1054.098511 
	C1731.084351,1045.255371 1731.084595,1045.271362 1740.263794,1045.150024 
	C1740.836548,1045.142334 1741.401978,1044.583008 1742.579224,1043.956665 
	C1740.045410,1038.364136 1739.827148,1033.021240 1744.612183,1027.858521 
	C1746.262329,1026.078125 1745.794678,1022.173523 1745.972412,1019.219849 
	C1746.524536,1010.042969 1749.456543,1006.547668 1758.104736,1005.103516 
	C1762.822632,1004.315674 1765.342896,1005.766174 1765.614868,1010.510010 
	C1765.817749,1014.045288 1764.943359,1017.704712 1764.132812,1021.212830 
	C1763.633057,1023.376221 1762.352417,1025.359131 1760.785767,1028.835815 
	C1764.743164,1029.343994 1767.830200,1029.721680 1770.911987,1030.139526 
	C1779.416260,1031.292358 1782.157837,1034.168213 1781.893921,1042.510132 
	C1781.434814,1057.017944 1780.688110,1071.516479 1780.123291,1086.021240 
	C1780.019775,1088.676880 1779.873657,1091.401123 1780.317505,1093.996094 
	C1782.748657,1108.210815 1780.929810,1121.614990 1774.151245,1134.515259 
	C1772.636841,1137.397339 1772.866089,1141.615845 1773.386475,1145.053467 
	C1774.288086,1151.009277 1774.011963,1156.674805 1769.655273,1160.934814 
	C1763.202881,1167.244019 1763.487793,1175.226685 1762.833618,1183.130249 
	C1762.567749,1186.343872 1762.806519,1190.057373 1761.276978,1192.628052 
	C1755.071777,1203.057495 1750.615356,1213.947998 1749.317749,1226.107056 
	C1749.043457,1228.678101 1747.803955,1231.207275 1746.707764,1233.618652 
	C1742.877197,1242.045532 1739.194824,1250.560303 1734.877197,1258.735962 
	C1732.899170,1262.481689 1729.366455,1265.372192 1726.912842,1268.910034 
	C1724.121216,1272.935303 1721.024536,1276.985107 1719.364990,1281.503418 
	C1717.007568,1287.921021 1713.632568,1293.268921 1708.965698,1298.263550 
	C1703.785034,1303.807861 1699.767334,1310.420044 1694.814209,1316.199707 
	C1685.102539,1327.532471 1675.166626,1338.676392 1665.170898,1349.760742 
	C1661.157349,1354.211548 1656.368896,1358.079712 1656.364258,1365.566284 
	C1656.390259,1366.318604 1656.362183,1366.272217 1655.607788,1366.267700 
	C1653.584473,1366.537842 1652.010132,1366.425171 1651.094482,1367.147705 
	C1642.391968,1374.012573 1633.632568,1380.826660 1625.305542,1388.129639 
	C1623.382935,1389.815796 1623.050537,1393.315063 1621.986572,1395.980225 
	C1617.825317,1399.177246 1613.664185,1402.374268 1608.202881,1405.896362 
	C1605.312988,1407.608276 1603.723389,1408.995117 1602.133789,1410.381836 
	C1599.200439,1413.028198 1596.586060,1416.190674 1593.279785,1418.233276 
	C1577.439941,1428.019775 1561.580200,1437.798828 1545.386841,1446.979370 
	C1536.153076,1452.214111 1525.865845,1454.836426 1514.182129,1456.379272 
	C1516.393311,1447.290161 1521.181519,1440.924072 1526.593140,1435.513184 
	C1539.751465,1422.356445 1553.204712,1409.447754 1567.164551,1397.148804 
	C1601.234497,1367.132690 1632.595093,1334.691284 1659.075928,1297.687500 
	C1676.761108,1272.974609 1691.192749,1246.419800 1705.285156,1218.358154 
	C1712.586548,1216.026611 1715.583862,1211.499756 1717.478149,1205.890015 
	C1721.066895,1195.262329 1724.810913,1184.686035 1728.318970,1174.032104 
	C1730.895874,1166.206421 1734.105591,1158.439941 1735.431885,1150.383423 
	C1737.997559,1134.796509 1740.978149,1119.200317 1740.918579,1103.279541 
	C1740.880005,1092.986450 1732.296997,1083.297119 1722.497803,1082.614624 
	C1722.497803,1082.614624 1721.628174,1082.983765 1721.628174,1082.983765 
	C1721.628174,1082.983765 1720.730469,1082.689697 1720.211914,1081.905273 
	C1718.404785,1080.848145 1717.115967,1080.575562 1715.827271,1080.302979 
z"/>
<path fill="#9DB88E" opacity="1.000000" stroke="none" 
	d="
M414.107422,1266.293213 
	C406.728638,1246.730591 399.983063,1227.365845 393.204041,1207.231689 
	C394.986115,1204.743530 396.801605,1203.024658 398.461487,1201.453247 
	C399.415466,1202.026855 399.882446,1202.140259 399.955200,1202.375488 
	C402.706329,1211.276123 405.374969,1220.202515 408.165985,1229.090454 
	C409.142761,1232.201050 409.746887,1235.738647 411.662933,1238.188232 
	C418.244019,1246.601807 418.671600,1257.197021 422.429230,1266.581299 
	C422.859985,1267.657104 422.487640,1269.054321 422.487640,1271.656616 
	C419.255005,1269.501343 416.997833,1267.996338 414.107422,1266.293213 
z"/>
<path fill="#9DB88E" opacity="1.000000" stroke="none" 
	d="
M405.047607,1195.179688 
	C409.997681,1190.797363 412.911560,1194.298340 414.330658,1197.838013 
	C416.130371,1202.326904 416.735077,1207.348877 417.393280,1212.203613 
	C417.559845,1213.432251 416.125397,1215.884155 415.157837,1216.033691 
	C413.550201,1216.281860 411.047424,1215.638184 410.136993,1214.443726 
	C408.406647,1212.173340 407.131836,1209.353516 406.408264,1206.569458 
	C405.505707,1203.096802 405.351044,1199.429565 405.047607,1195.179688 
z"/>
<path fill="#B0C0A7" opacity="1.000000" stroke="none" 
	d="
M1786.189941,1116.177490 
	C1786.191406,1117.218262 1785.792725,1118.618652 1784.869995,1120.276733 
	C1784.827271,1119.202026 1785.308472,1117.869507 1786.189941,1116.177490 
z"/>
<path fill="#9DB88E" opacity="1.000000" stroke="none" 
	d="
M456.336273,1110.449097 
	C455.975739,1110.279663 455.784027,1109.957886 455.592316,1109.636108 
	C455.896576,1109.856323 456.200836,1110.076538 456.336273,1110.449097 
z"/>
<path fill="#B0C0A7" opacity="1.000000" stroke="none" 
	d="
M1787.830566,1100.309570 
	C1788.211304,1101.065308 1788.294678,1102.165649 1788.141113,1103.625122 
	C1787.780518,1102.874268 1787.656982,1101.764282 1787.830566,1100.309570 
z"/>
<path fill="#B0C0A7" opacity="1.000000" stroke="none" 
	d="
M1785.758789,1016.325317 
	C1786.316040,1017.039612 1786.611084,1018.083679 1786.759644,1019.663208 
	C1786.240967,1019.017456 1785.868774,1017.836243 1785.758789,1016.325317 
z"/>
<path fill="#9AB68D" opacity="1.000000" stroke="none" 
	d="
M428.697266,1082.670288 
	C419.999939,1085.991089 417.436462,1084.807861 418.255798,1076.084106 
	C419.420197,1063.686279 418.452393,1050.841187 423.897186,1039.093994 
	C424.673462,1037.419312 426.252289,1036.116455 428.175812,1034.430542 
	C428.394836,1046.819580 427.812988,1059.416992 427.458405,1072.020996 
	C427.366547,1075.285278 427.986572,1078.569336 428.697266,1082.670288 
z"/>
<path fill="#9AB58C" opacity="1.000000" stroke="none" 
	d="
M1722.752441,1083.295410 
	C1732.296997,1083.297119 1740.880005,1092.986450 1740.918579,1103.279541 
	C1740.978149,1119.200317 1737.997559,1134.796509 1735.431885,1150.383423 
	C1734.105591,1158.439941 1730.895874,1166.206421 1728.318970,1174.032104 
	C1724.810913,1184.686035 1721.066895,1195.262329 1717.478149,1205.890015 
	C1715.583862,1211.499756 1712.586548,1216.026611 1705.751343,1217.907471 
	C1707.167969,1211.799194 1709.306641,1205.526001 1711.560669,1199.294556 
	C1721.060303,1173.032349 1727.468140,1145.969360 1731.666260,1118.425171 
	C1733.553955,1106.039673 1732.910645,1093.687012 1722.752441,1083.295410 
z"/>
<path fill="#9AB68D" opacity="1.000000" stroke="none" 
	d="
M1676.903687,1078.163330 
	C1675.847534,1075.206665 1675.710815,1072.341919 1675.581421,1069.627686 
	C1689.898438,1066.189087 1695.336792,1067.762085 1699.919434,1076.962769 
	C1692.610596,1077.876831 1685.216919,1078.066040 1676.903687,1078.163330 
z"/>
<path fill="#9AB68D" opacity="1.000000" stroke="none" 
	d="
M1622.636475,1395.790527 
	C1623.050537,1393.315063 1623.382935,1389.815796 1625.305542,1388.129639 
	C1633.632568,1380.826660 1642.391968,1374.012573 1651.094482,1367.147705 
	C1652.010132,1366.425171 1653.584473,1366.537842 1655.599121,1366.266113 
	C1647.360718,1374.371948 1638.390625,1382.490479 1629.381958,1390.565918 
	C1627.421143,1392.323486 1625.321899,1393.926514 1622.636475,1395.790527 
z"/>
<path fill="#9AB68D" opacity="1.000000" stroke="none" 
	d="
M1602.801270,1410.286865 
	C1603.723389,1408.995117 1605.312988,1407.608276 1607.592529,1406.160522 
	C1606.677979,1407.463745 1605.073364,1408.827881 1602.801270,1410.286865 
z"/>
<path fill="#9AB68D" opacity="1.000000" stroke="none" 
	d="
M1716.263916,1080.690308 
	C1717.115967,1080.575562 1718.404785,1080.848145 1719.857910,1081.593262 
	C1718.915039,1081.736450 1717.807861,1081.407104 1716.263916,1080.690308 
z"/>
</svg>